<?xml version="1.0" standalone="no"?>
<!DOCTYPE svg PUBLIC "-//W3C//DTD SVG 20010904//EN"
 "http://www.w3.org/TR/2001/REC-SVG-20010904/DTD/svg10.dtd">
<svg version="1.0" xmlns="http://www.w3.org/2000/svg"
 width="500.000000pt" height="500.000000pt" viewBox="0 0 500.000000 500.000000"
 preserveAspectRatio="xMidYMid meet">

<g transform="translate(0.000000,500.000000) scale(0.100000,-0.100000)"
fill="#000000" stroke="none">
<path d="M1711 4485 c-183 -25 -430 -99 -583 -176 -527 -265 -892 -739 -1015
-1318 -25 -116 -27 -144 -28 -366 0 -210 3 -254 22 -351 113 -557 441 -1014
925 -1290 113 -65 320 -151 414 -173 l51 -12 41 -182 c22 -100 62 -280 89
-399 40 -182 51 -218 66 -218 9 0 17 5 17 10 0 6 -21 103 -46 216 -25 113 -44
207 -42 208 8 6 1331 296 1334 293 3 -3 164 -714 164 -724 0 -2 9 -3 21 -3 15
0 19 5 15 18 -10 33 -216 972 -216 986 0 8 20 26 45 40 111 66 306 240 420
376 75 91 181 250 226 343 l34 68 623 356 c342 196 622 359 622 363 0 4 -263
158 -584 341 l-585 334 -27 70 c-15 38 -49 115 -77 169 -274 540 -772 907
-1372 1012 -119 21 -428 26 -554 9z m533 -759 c270 -70 514 -245 670 -480 52
-77 146 -280 146 -314 0 -8 -18 9 -40 37 -133 167 -355 245 -572 200 -183 -38
-354 -204 -412 -398 -25 -83 -21 -239 7 -322 64 -189 230 -340 415 -378 213
-44 443 42 569 214 50 66 50 55 6 -65 -140 -374 -467 -650 -862 -727 -113 -22
-309 -22 -422 0 -460 90 -816 441 -909 898 -24 118 -27 308 -5 430 60 347 291
656 607 815 191 96 325 125 548 120 126 -3 173 -9 254 -30z m-894 -91 c0 -2
-10 -9 -22 -15 -22 -11 -22 -10 -4 4 21 17 26 19 26 11z m3477 -1082 c2 -7
-1119 -653 -1124 -649 -2 1 13 45 31 97 125 349 136 789 30 1151 -5 17 1058
-583 1063 -599z"/>
</g>
</svg>
